<svg xmlns="http://www.w3.org/2000/svg" width="128" height="128"><path d="M64 0A64 64 0 000 64a64 64 0 0064 64 64 64 0 0064-64A64 64 0 0064 0zm0 7.6934c.9986.0116 1.6995.7091 2.2129 1.168 7.446 7.7812 15.3135 9.7394 22.1094 16.5722 13.3475 11.8659.5576 29.1921 17.5136 36.5117 1.3302 1.9352-.8197 5.5447-2.7441 6.1953-2.734.4354-5.2981.0909-7.9063-.5488-4.0047 7.4187-3.5147 18.0302-1.7207 24.9863-8.9025 7.7723-17.631 27.7505-26.2617 27.7285-.0869-7.6818.2481-15.6412.2559-22.4902 1.204-3.5097 2.8836-5.9405 5.8887-7.42v-14.789c4.6737-2.2058 9.4725-4.4913 13.8886-7.041 1.6965-2.9384 1.975-7.4383-.418-11.1738-6.6609 3.1725-11.6696 5.7196-18.75 9.248.041 5.3776.054 11.3527 1.375 15.8516-2.2922 1.983-2.851 2.489-5.4433 4.664-2.5924-2.175-3.151-2.681-5.4434-4.664 1.3212-4.499 1.334-10.474 1.375-15.8516-7.0803-3.5284-12.089-6.0755-18.75-9.248-2.3929 3.7355-2.1144 8.2354-.418 11.1738 4.4162 2.5497 9.215 4.8352 13.8887 7.041v14.789c3.0051 1.4795 4.6847 3.9103 5.8887 7.42.0078 6.849.3428 14.8084.2559 22.4902-8.6306.022-17.3592-19.9562-26.2617-27.7285 1.794-6.9561 2.284-17.5676-1.7207-24.9863-2.6082.6397-5.1723.9842-7.9063.5488-1.9244-.6506-4.0743-4.2601-2.7441-6.1953 16.956-7.3196 4.1661-24.6458 17.5136-36.5117 6.796-6.8328 14.6634-8.791 22.1094-16.5723.5134-.4588 1.2143-1.1563 2.2129-1.168z" fill="#f60"/></svg>